<svg width="93" height="93" viewBox="0 0 93 93" fill="none" xmlns="http://www.w3.org/2000/svg">
<g filter="url(#filter0_d)">
<rect x="4" width="85" height="85" rx="20" fill="#240058"/>
<g clip-path="url(#clip0)">
<path d="M59.7494 33.625H48.9307L52.9244 20.9492C53.2994 19.4648 52.2213 18 50.7494 18H37.2494C36.1244 18 35.1682 18.8691 35.0182 20.0312L32.0182 43.4687C31.84 44.875 32.89 46.125 34.2494 46.125H45.3775L41.0557 65.1191C40.7182 66.6035 41.8057 68 43.24 68C44.0275 68 44.7775 67.5703 45.19 66.8281L61.69 37.1406C62.5619 35.5879 61.4838 33.625 59.7494 33.625Z" fill="#F7D022"/>
</g>
</g>
<defs>
<filter id="filter0_d" x="0" y="0" width="93" height="93" filterUnits="userSpaceOnUse" color-interpolation-filters="sRGB">
<feFlood flood-opacity="0" result="BackgroundImageFix"/>
<feColorMatrix in="SourceAlpha" type="matrix" values="0 0 0 0 0 0 0 0 0 0 0 0 0 0 0 0 0 0 127 0"/>
<feOffset dy="4"/>
<feGaussianBlur stdDeviation="2"/>
<feColorMatrix type="matrix" values="0 0 0 0 0 0 0 0 0 0 0 0 0 0 0 0 0 0 0.25 0"/>
<feBlend mode="normal" in2="BackgroundImageFix" result="effect1_dropShadow"/>
<feBlend mode="normal" in="SourceGraphic" in2="effect1_dropShadow" result="shape"/>
</filter>
<clipPath id="clip0">
<rect width="30" height="50" fill="white" transform="translate(32 18)"/>
</clipPath>
</defs>
</svg>
