<svg width="737" height="610" viewBox="0 0 737 610" fill="none" xmlns="http://www.w3.org/2000/svg">
<g filter="url(#filter0_d)">
<g opacity="0.5">
<path opacity="0.5" d="M449.834 20H23.8157C21.7083 20 20 21.4829 20 23.3121V585.688C20 587.517 21.7083 589 23.8157 589H449.834C451.941 589 453.649 587.517 453.649 585.688V23.3121C453.649 21.4829 451.941 20 449.834 20Z" fill="url(#paint0_linear)"/>
</g>
<path d="M444.27 24H38.7296C36.6698 24 35 25.4842 35 27.3152V578.685C35 580.516 36.6698 582 38.7296 582H444.27C446.33 582 448 580.516 448 578.685V27.3152C448 25.4842 446.33 24 444.27 24Z" fill="white"/>
<path d="M148.504 126.877H71.6306C69.5232 126.877 67.8149 128.36 67.8149 130.189V189.586C67.8149 191.415 69.5232 192.898 71.6306 192.898H148.504C150.611 192.898 152.32 191.415 152.32 189.586V130.189C152.32 128.36 150.611 126.877 148.504 126.877Z" fill="#F7D022"/>
<path d="M402.044 126.877H181.472C179.374 126.877 177.673 128.353 177.673 130.174V130.918C177.673 132.739 179.374 134.215 181.472 134.215H402.044C404.142 134.215 405.843 132.739 405.843 130.918V130.174C405.843 128.353 404.142 126.877 402.044 126.877Z" fill="#E0E0E0"/>
<path d="M363.548 148.877H181.472C179.374 148.877 177.673 150.353 177.673 152.174V152.917C177.673 154.738 179.374 156.215 181.472 156.215H363.548C365.646 156.215 367.347 154.738 367.347 152.917V152.174C367.347 150.353 365.646 148.877 363.548 148.877Z" fill="#E0E0E0"/>
<path d="M148.504 229.566H71.6306C69.5232 229.566 67.8149 231.049 67.8149 232.878V292.275C67.8149 294.104 69.5232 295.587 71.6306 295.587H148.504C150.611 295.587 152.32 294.104 152.32 292.275V232.878C152.32 231.049 150.611 229.566 148.504 229.566Z" fill="#F7D022"/>
<path d="M402.044 229.566H181.472C179.374 229.566 177.673 231.042 177.673 232.863V233.607C177.673 235.428 179.374 236.904 181.472 236.904H402.044C404.142 236.904 405.843 235.428 405.843 233.607V232.863C405.843 231.042 404.142 229.566 402.044 229.566Z" fill="#E0E0E0"/>
<path d="M402.044 251.573H181.472C179.374 251.573 177.673 253.049 177.673 254.87V255.614C177.673 257.435 179.374 258.911 181.472 258.911H402.044C404.142 258.911 405.843 257.435 405.843 255.614V254.87C405.843 253.049 404.142 251.573 402.044 251.573Z" fill="#E0E0E0"/>
<path d="M148.504 332.263H71.6306C69.5232 332.263 67.8149 333.745 67.8149 335.575V394.971C67.8149 396.8 69.5232 398.283 71.6306 398.283H148.504C150.611 398.283 152.32 396.8 152.32 394.971V335.575C152.32 333.745 150.611 332.263 148.504 332.263Z" fill="#F7D022"/>
<path d="M402.044 332.263H181.472C179.374 332.263 177.673 333.739 177.673 335.56V336.303C177.673 338.124 179.374 339.601 181.472 339.601H402.044C404.142 339.601 405.843 338.124 405.843 336.303V335.56C405.843 333.739 404.142 332.263 402.044 332.263Z" fill="#E0E0E0"/>
<path d="M199.227 354.269H181.472C179.374 354.269 177.673 355.746 177.673 357.567V358.31C177.673 360.131 179.374 361.608 181.472 361.608H199.227C201.325 361.608 203.026 360.131 203.026 358.31V357.567C203.026 355.746 201.325 354.269 199.227 354.269Z" fill="#E0E0E0"/>
<g opacity="0.5">
<path opacity="0.5" d="M713.184 203.202H293.67C291.563 203.202 289.854 204.685 289.854 206.514V534.343C289.854 536.173 291.563 537.655 293.67 537.655H713.184C715.292 537.655 717 536.173 717 534.343V206.514C717 204.685 715.292 203.202 713.184 203.202Z" fill="url(#paint1_linear)"/>
</g>
<path d="M706.857 214H299.816C297.708 214 296 215.483 296 217.312V534.638C296 536.468 297.708 537.951 299.816 537.951H706.857C708.964 537.951 710.673 536.468 710.673 534.638V217.312C710.673 215.483 708.964 214 706.857 214Z" fill="white"/>
<path d="M422.445 276.156H340.985C338.877 276.156 337.169 277.639 337.169 279.468V342.449C337.169 344.278 338.877 345.761 340.985 345.761H422.445C424.553 345.761 426.261 344.278 426.261 342.449V279.468C426.261 277.639 424.553 276.156 422.445 276.156Z" fill="#F7D022"/>
<path d="M689.73 276.156H456.804C454.696 276.156 452.988 277.639 452.988 279.468V280.579C452.988 282.409 454.696 283.892 456.804 283.892H689.73C691.838 283.892 693.546 282.409 693.546 280.579V279.468C693.546 277.639 691.838 276.156 689.73 276.156Z" fill="#E0E0E0"/>
<path d="M689.73 299.355H456.804C454.696 299.355 452.988 300.838 452.988 302.667V303.779C452.988 305.608 454.696 307.091 456.804 307.091H689.73C691.838 307.091 693.546 305.608 693.546 303.779V302.667C693.546 300.838 691.838 299.355 689.73 299.355Z" fill="#E0E0E0"/>
<path d="M689.731 383.57H332.073C329.966 383.57 328.257 385.053 328.257 386.882V387.994C328.257 389.823 329.966 391.306 332.073 391.306H689.731C691.838 391.306 693.546 389.823 693.546 387.994V386.882C693.546 385.053 691.838 383.57 689.731 383.57Z" fill="#E0E0E0"/>
<path d="M689.731 406.77H332.073C329.966 406.77 328.257 408.252 328.257 410.082V411.193C328.257 413.022 329.966 414.505 332.073 414.505H689.731C691.838 414.505 693.546 413.022 693.546 411.193V410.082C693.546 408.252 691.838 406.77 689.731 406.77Z" fill="#E0E0E0"/>
<path d="M689.731 437.704H332.073C329.966 437.704 328.257 439.187 328.257 441.016V442.128C328.257 443.957 329.966 445.44 332.073 445.44H689.731C691.838 445.44 693.546 443.957 693.546 442.128V441.016C693.546 439.187 691.838 437.704 689.731 437.704Z" fill="#E0E0E0"/>
<path d="M600.638 460.904H332.073C329.966 460.904 328.257 462.386 328.257 464.216V465.327C328.257 467.156 329.966 468.639 332.073 468.639H600.638C602.746 468.639 604.454 467.156 604.454 465.327V464.216C604.454 462.386 602.746 460.904 600.638 460.904Z" fill="#E0E0E0"/>
</g>
<defs>
<filter id="filter0_d" x="0" y="0.5" width="737" height="609" filterUnits="userSpaceOnUse" color-interpolation-filters="sRGB">
<feFlood flood-opacity="0" result="BackgroundImageFix"/>
<feColorMatrix in="SourceAlpha" type="matrix" values="0 0 0 0 0 0 0 0 0 0 0 0 0 0 0 0 0 0 127 0"/>
<feOffset dy="0.5"/>
<feGaussianBlur stdDeviation="10"/>
<feColorMatrix type="matrix" values="0 0 0 0 0 0 0 0 0 0 0 0 0 0 0 0 0 0 0.25 0"/>
<feBlend mode="normal" in2="BackgroundImageFix" result="effect1_dropShadow"/>
<feBlend mode="normal" in="SourceGraphic" in2="effect1_dropShadow" result="shape"/>
</filter>
<linearGradient id="paint0_linear" x1="236.825" y1="589" x2="236.825" y2="20" gradientUnits="userSpaceOnUse">
<stop stop-color="#808080" stop-opacity="0.25"/>
<stop offset="0.54" stop-color="#808080" stop-opacity="0.12"/>
<stop offset="1" stop-color="#808080" stop-opacity="0.1"/>
</linearGradient>
<linearGradient id="paint1_linear" x1="243814" y1="235428" x2="243814" y2="83452" gradientUnits="userSpaceOnUse">
<stop stop-color="#808080" stop-opacity="0.25"/>
<stop offset="0.54" stop-color="#808080" stop-opacity="0.12"/>
<stop offset="1" stop-color="#808080" stop-opacity="0.1"/>
</linearGradient>
</defs>
</svg>
