<svg width="136" height="51" viewBox="0 0 136 51" fill="none" xmlns="http://www.w3.org/2000/svg">
<path d="M4.94846 2.01132C4.66652 2.88662 3.49989 6.51971 2.35271 10.0809C1.20552 13.642 0.20416 16.7595 0.126385 16.9993L0 17.455H1.7305H3.46101L4.08321 15.5005L4.71513 13.5581L7.34005 13.5221L9.96497 13.4981L10.5969 15.4406L11.2288 17.395L12.9496 17.431C13.8926 17.443 14.6704 17.419 14.6704 17.371C14.6704 17.3111 13.4551 13.4981 11.9677 8.88182L9.27472 0.488535L7.3595 0.452564L5.454 0.428583L4.94846 2.01132ZM8.13725 7.76671L8.81779 9.901H7.3595C6.00815 9.901 5.90121 9.88901 5.95954 9.68517C6.44564 8.06647 7.33033 5.48853 7.38866 5.54848C7.42755 5.60844 7.7581 6.60364 8.13725 7.76671Z" fill="#292933"/>
<path d="M15.4482 7.94657C15.4482 15.0209 15.4676 15.5005 15.6329 15.9562C15.7301 16.2199 15.9342 16.5797 16.0898 16.7595C16.6926 17.455 16.712 17.455 21.3494 17.455C25.2867 17.455 25.6367 17.431 25.9964 17.2271C26.2103 17.1072 26.502 16.8554 26.6478 16.6636C27.2214 15.8962 27.2117 16.112 27.2117 7.92259V0.428583H25.6562H24.1007V7.14321V13.8578H21.3299H18.5592V7.14321V0.428583H17.0037H15.4482V7.94657Z" fill="#292933"/>
<path d="M28.67 2.22714V4.0257H30.906H33.142V10.7403V17.455H34.6975H36.253V10.7403V4.0257H38.3433H40.4335V2.22714V0.428583H34.5517H28.67V2.22714Z" fill="#292933"/>
<path d="M43.107 0.656401C42.8931 0.776304 42.6014 1.0281 42.4556 1.21995C41.882 1.97534 41.8917 1.86743 41.8917 8.96575C41.8917 15.0449 41.9112 15.5125 42.0765 15.9562C42.1737 16.2199 42.3778 16.5797 42.5334 16.7595C43.1362 17.455 43.1556 17.455 47.793 17.455C51.7303 17.455 52.0803 17.431 52.44 17.2271C52.9164 16.9514 53.3053 16.4598 53.4997 15.8722C53.7331 15.2008 53.7331 2.68278 53.4997 2.01132C53.3053 1.42379 52.9164 0.93218 52.44 0.656401C52.0803 0.452564 51.7303 0.428583 47.7735 0.428583C43.8167 0.428583 43.4667 0.452564 43.107 0.656401ZM50.5443 8.94177V13.8578H47.7735H45.0028V8.94177V4.0257H47.7735H50.5443V8.94177Z" fill="#292933"/>
<path d="M55.1135 8.94177V17.455H56.669H58.2245L58.244 12.5988L58.2731 7.74273L61.0439 12.5988L63.8146 17.455H65.3507H66.877V8.94177V0.428583H65.3215H63.766L63.7466 5.26072L63.7174 10.1048L60.9564 5.26072L58.1953 0.428583H56.6496H55.1135V8.94177Z" fill="#292933"/>
<path d="M69.5506 0.656401C69.3367 0.776304 69.0451 1.0281 68.8992 1.21995C68.3256 1.97534 68.3354 1.86743 68.3354 8.96575C68.3354 15.0449 68.3548 15.5125 68.5201 15.9562C68.6173 16.2199 68.8215 16.5797 68.977 16.7595C69.5798 17.455 69.5992 17.455 74.2366 17.455C78.1739 17.455 78.5239 17.431 78.8836 17.2271C79.36 16.9514 79.7489 16.4598 79.9433 15.8722C80.1766 15.2008 80.1766 2.68278 79.9433 2.01132C79.7489 1.42379 79.36 0.93218 78.8836 0.656401C78.5239 0.452564 78.1739 0.428583 74.2171 0.428583C70.2603 0.428583 69.9103 0.452564 69.5506 0.656401ZM76.9879 8.94177V13.8578H74.2171H71.4464V8.94177V4.0257H74.2171H76.9879V8.94177Z" fill="#292933"/>
<path d="M81.4599 8.94177V17.455H83.0154H84.5709L84.5904 13.5341L84.6196 9.62522L86.1264 13.5101L87.6431 17.395H88.8875H90.1319L91.6582 13.4622L93.1748 9.5293L93.204 13.4861L93.2234 17.455H94.779H96.3345V8.94177V0.428583L94.7595 0.452564L93.1846 0.488535L91.0457 5.96815C89.8694 8.98973 88.8778 11.4598 88.8486 11.4598C88.8097 11.4598 87.8375 8.98973 86.6806 5.96815L84.5807 0.488535L83.0252 0.452564L81.4599 0.428583V8.94177Z" fill="#292933"/>
<path d="M99.0078 0.656401C98.7939 0.776304 98.5023 1.0281 98.3564 1.21995C97.7828 1.97534 97.7926 1.86743 97.7926 8.96575C97.7926 15.0449 97.812 15.5125 97.9773 15.9562C98.0745 16.2199 98.2787 16.5797 98.4342 16.7595C99.037 17.455 99.0564 17.455 103.694 17.455C107.631 17.455 107.981 17.431 108.341 17.2271C108.817 16.9514 109.206 16.4598 109.401 15.8722C109.634 15.2008 109.634 2.68278 109.401 2.01132C109.206 1.42379 108.817 0.93218 108.341 0.656401C107.981 0.452564 107.631 0.428583 103.674 0.428583C99.7175 0.428583 99.3675 0.452564 99.0078 0.656401ZM106.445 8.94177V13.8578H103.674H100.904V8.94177V4.0257H103.674H106.445V8.94177Z" fill="#292933"/>
<path d="M111.015 7.94657C111.015 15.0209 111.034 15.5005 111.199 15.9562C111.297 16.2199 111.501 16.5797 111.656 16.7595C112.259 17.455 112.279 17.455 116.916 17.455C120.853 17.455 121.203 17.431 121.563 17.2271C121.777 17.1072 122.068 16.8554 122.214 16.6636C122.788 15.8962 122.778 16.112 122.778 7.92259V0.428583H121.222H119.667V7.14321V13.8578H116.896H114.126V7.14321V0.428583H112.57H111.015V7.94657Z" fill="#292933"/>
<path d="M125.452 0.656401C125.238 0.776304 124.946 1.0281 124.8 1.21995C124.285 1.9034 124.236 2.22714 124.236 5.10484C124.236 7.98254 124.285 8.30628 124.8 8.98973C125.393 9.75712 125.471 9.7811 129.37 9.7811H132.889V11.8195V13.8578H128.563H124.236V15.6564V17.455H129.321C134.056 17.455 134.425 17.431 134.785 17.2271C134.999 17.1072 135.29 16.8554 135.436 16.6636C135.971 15.9562 136 15.7403 136 11.8195C136 7.8986 135.971 7.68278 135.436 6.97534C134.843 6.20796 134.765 6.18398 130.877 6.18398H127.348V5.10484V4.0257H131.674H136V2.22714V0.428583H130.925C126.181 0.428583 125.811 0.452564 125.452 0.656401Z" fill="#292933"/>
<path d="M0.962326 29.5653V36.6396H2.27478H3.58724L3.59697 33.4262L3.60669 30.2247L4.88026 33.4262L6.15383 36.6396H7.18435H8.20515L9.469 33.4142L10.7329 30.1768L10.762 33.4142L10.7815 36.6396H12.0939H13.4064V29.5653V22.4909H12.1134H10.8203L9.03152 27.0113C8.0496 29.5053 7.21352 31.5916 7.18435 31.6396C7.14547 31.6876 6.30938 29.6612 5.32747 27.1192L3.53863 22.4909H2.25534H0.962326V29.5653Z" fill="#292933"/>
<path d="M18.6661 22.7548C18.6175 22.9106 17.6259 25.9682 16.4689 29.5653C15.3023 33.1624 14.3204 36.22 14.2718 36.3758L14.1843 36.6516L15.6523 36.6156L17.1203 36.5797L17.6259 35.0209L18.1314 33.4622H20.348H22.5646L23.0701 35.0209L23.5757 36.5797L25.0534 36.6156L26.5311 36.6516L26.3464 36.0761C26.2492 35.7523 25.209 32.5749 24.052 28.9898L21.9424 22.491H20.348C18.7828 22.491 18.7439 22.491 18.6661 22.7548ZM20.9702 28.5461L21.5535 30.3447L20.3869 30.3806C19.7355 30.3926 19.2008 30.3926 19.1814 30.3686C19.1619 30.3447 19.4147 29.5053 19.7355 28.4981C20.0661 27.5029 20.348 26.6996 20.3577 26.7116C20.3772 26.7356 20.6494 27.5509 20.9702 28.5461Z" fill="#292933"/>
<path d="M27.1144 29.5653V36.6396H28.4269H29.7393V33.4621V30.2847H32.0726H34.4058V33.4621V36.6396H35.6697H36.9433L36.9141 33.2943C36.8849 30.1048 36.8752 29.925 36.6808 29.6012C36.5738 29.4214 36.3502 29.1576 36.185 29.0257L35.903 28.7739L36.253 28.4741C36.8363 27.9586 36.9335 27.5509 36.9335 25.6564C36.9335 24.1216 36.9141 23.9777 36.6905 23.4981C36.5349 23.1624 36.3113 22.9106 36.0294 22.7427C35.6211 22.5029 35.4753 22.4909 31.3629 22.4909H27.1144V29.5653ZM34.4058 26.3878V27.2871H32.0726H29.7393V26.3878V25.4885H32.0726H34.4058V26.3878Z" fill="#292933"/>
<path d="M38.1974 29.5653V36.6396H39.5099H40.8223V29.5653V22.4909H39.5099H38.1974V29.5653Z" fill="#292933"/>
<path d="M41.989 29.5653V36.6396H43.3014H44.6139V32.5989V28.5581L46.9277 32.5749L49.2415 36.5797L50.5248 36.6156L51.8081 36.6516V29.5653V22.491H50.5443H49.2804L49.261 26.5317L49.2318 30.5845L46.8985 26.5437L44.5653 22.491H43.282H41.989V29.5653Z" fill="#292933"/>
<path d="M54.0927 22.6588C53.733 22.8626 53.315 23.4022 53.1789 23.8458C53.1108 24.0737 53.0719 26.0521 53.0719 29.5653C53.0719 33.0785 53.1108 35.0569 53.1789 35.2847C53.315 35.7403 53.733 36.2799 54.1122 36.4717C54.3649 36.6036 55.2205 36.6396 58.2731 36.6396H62.1133V35.1408V33.642H58.9051H55.6968V31.9633V30.2847H58.9051H62.1133V28.7859V27.2871H58.9051H55.6968V26.3878V25.4885H58.9051H62.1133V23.9897V22.4909H58.2537C55.2399 22.5029 54.3163 22.5389 54.0927 22.6588Z" fill="#292933"/>
<path d="M67.4117 22.9346C67.4895 23.1863 68.5103 26.3518 69.6867 29.9849L71.8061 36.5797L73.4199 36.6156L75.024 36.6396L77.1337 30.1408C78.2906 26.5557 79.3308 23.3782 79.428 23.0545L79.6128 22.4789L78.135 22.5149L76.6573 22.5509L75.1212 27.2871C74.2754 29.889 73.556 32.1312 73.5074 32.2511C73.4393 32.431 73.0505 31.3278 71.8158 27.5149L70.2019 22.5509L68.7339 22.5149L67.2659 22.4789L67.4117 22.9346Z" fill="#292933"/>
<path d="M81.3141 22.6588C80.9543 22.8626 80.5363 23.4022 80.4002 23.8458C80.3321 24.0737 80.2933 26.0521 80.2933 29.5653C80.2933 33.0785 80.3321 35.0569 80.4002 35.2847C80.5363 35.7403 80.9543 36.2799 81.3335 36.4717C81.5863 36.6036 82.4418 36.6396 85.4945 36.6396H89.3346V35.1408V33.642H86.1264H82.9182V31.9633V30.2847H86.1264H89.3346V28.7859V27.2871H86.1264H82.9182V26.3878V25.4885H86.1264H89.3346V23.9897V22.4909H85.475C82.4612 22.5029 81.5377 22.5389 81.3141 22.6588Z" fill="#292933"/>
<path d="M90.5011 29.5653V36.6396H91.8136H93.1261V33.4621V30.2847H95.4595H97.7928V33.4621V36.6396H99.0567H100.321V29.5653V22.4909H99.0567H97.7928V24.889V27.2871H95.4595H93.1261V24.889V22.4909H91.8136H90.5011V29.5653Z" fill="#292933"/>
<path d="M101.584 29.5653V36.6396H102.897H104.209V29.5653V22.4909H102.897H101.584V29.5653Z" fill="#292933"/>
<path d="M106.397 22.6588C106.037 22.8626 105.619 23.4022 105.483 23.8458C105.415 24.0737 105.376 26.0521 105.376 29.5653C105.376 33.0785 105.415 35.0569 105.483 35.2847C105.619 35.7403 106.037 36.2799 106.416 36.4717C106.669 36.6036 107.524 36.6396 110.577 36.6396H114.417V35.1408V33.642H111.209H108.001V29.5653V25.4885H111.209H114.417V23.9897V22.4909H110.557C107.544 22.5029 106.62 22.5389 106.397 22.6588Z" fill="#292933"/>
<path d="M115.584 28.7139C115.584 32.8267 115.623 35.0569 115.691 35.2847C115.827 35.7403 116.245 36.2799 116.624 36.4717C116.877 36.6036 117.732 36.6396 120.785 36.6396H124.625V35.1408V33.642H121.417H118.209V28.0665V22.4909H116.896H115.584V28.7139Z" fill="#292933"/>
<path d="M126.813 22.6588C126.453 22.8626 126.035 23.4022 125.899 23.8458C125.831 24.0737 125.792 26.0521 125.792 29.5653C125.792 33.0785 125.831 35.0569 125.899 35.2847C126.035 35.7403 126.453 36.2799 126.832 36.4717C127.085 36.6036 127.94 36.6396 130.993 36.6396H134.833V35.1408V33.642H131.625H128.417V31.9633V30.2847H131.625H134.833V28.7859V27.2871H131.625H128.417V26.3878V25.4885H131.625H134.833V23.9897V22.4909H130.973C127.96 22.5029 127.036 22.5389 126.813 22.6588Z" fill="#292933"/>
<path d="M9.39138 41.8794C9.35249 41.9154 9.32333 43.678 9.32333 45.7763C9.32333 49.4334 9.3136 49.6013 9.12889 49.8291C9.02195 49.961 8.8664 50.0689 8.78862 50.0689C8.71085 50.0689 8.64279 50.1168 8.64279 50.1888C8.64279 50.2607 9.09972 50.3087 9.80942 50.3087C10.9469 50.3087 11.326 50.1768 10.6358 50.0209C10.4025 49.961 10.2566 49.8531 10.208 49.6732C10.1594 49.5293 10.0914 48.1984 10.0622 46.7116L9.99414 44.0137L11.4233 45.8722C14.1454 49.3974 15.0106 50.4286 15.2343 50.4286H15.4481V46.6636C15.4481 44.5893 15.487 42.7547 15.5356 42.5989C15.5842 42.431 15.7398 42.2751 15.8759 42.2272C16.4495 42.0473 16.0801 41.9154 15.0106 41.9154C14.3107 41.9154 13.8926 41.9634 13.8926 42.0353C13.8926 42.1073 14.019 42.1912 14.1843 42.2272C14.6995 42.3591 14.719 42.443 14.7676 45.5005C14.7968 47.0593 14.8162 48.3423 14.8065 48.3543C14.8065 48.3782 14.0871 47.455 13.2121 46.3159C9.85803 41.9514 9.58582 41.6276 9.39138 41.8794Z" fill="#292933"/>
<path d="M30.4977 41.8794C28.7866 41.9154 28.3103 42.0233 28.9325 42.2152C29.4574 42.3711 29.4477 42.2871 29.4477 46.0761C29.4477 48.2823 29.4088 49.6972 29.3505 49.8411C29.2922 49.961 29.1561 50.0689 29.0588 50.0689C28.9519 50.0689 28.8644 50.1168 28.8644 50.1648C28.8644 50.2607 30.8866 50.4286 32.0824 50.4286C32.7532 50.4286 32.8504 50.2967 32.8504 49.3614C32.8504 48.8938 32.8115 48.7499 32.7046 48.7499C32.6171 48.7499 32.5296 48.8938 32.4907 49.1096C32.4129 49.6372 32.131 49.8291 31.4407 49.8291C30.488 49.8291 30.4685 49.7931 30.4685 47.8267V46.172L31.1199 46.184C31.8101 46.196 32.0726 46.3399 32.0726 46.7236C32.0726 46.8674 32.1407 46.9514 32.2671 46.9514C32.4323 46.9514 32.4615 46.8674 32.4615 46.4838C32.4615 46.232 32.4907 45.8483 32.5198 45.6444C32.5976 45.2128 32.4226 45.1408 32.0337 45.4526C31.8685 45.5965 31.6157 45.6324 31.1393 45.6085L30.4685 45.5725V44.0137V42.455L31.149 42.5029C31.956 42.5509 32.1698 42.6588 32.1698 43.0545C32.1698 43.2703 32.2185 43.3543 32.3643 43.3543C32.4907 43.3543 32.5587 43.2703 32.5587 43.1264C32.5587 43.0065 32.5879 42.6588 32.6171 42.3471C32.6754 41.8555 32.6657 41.7955 32.5004 41.8195C32.3935 41.8435 31.499 41.8675 30.4977 41.8794Z" fill="#292933"/>
<path d="M42.6598 41.9147C41.6973 42.2624 41.2501 43.5574 41.6487 44.7684C41.8432 45.32 42.0279 45.5718 43.0195 46.591C43.4764 47.0706 43.875 47.5982 43.982 47.8619C44.4292 49.013 43.6125 50.1761 42.582 49.8284C42.1348 49.6845 41.8432 49.2888 41.7557 48.6893C41.6098 47.778 41.3084 48.4854 41.3084 49.7205C41.3084 49.9723 41.2598 50.0682 41.1432 50.0682C40.8126 50.0562 40.1904 49.6125 39.7918 49.097C39.2863 48.4375 38.1002 46.591 38.1002 46.483C38.1002 46.4351 38.2169 46.2672 38.353 46.0993C38.4988 45.9435 38.7127 45.5358 38.8391 45.212C39.296 44.025 39.0627 42.8259 38.2558 42.2624C37.8863 41.9986 37.7308 41.9746 36.1364 41.9386C35.1253 41.9147 34.4059 41.9386 34.4059 41.9986C34.4059 42.0586 34.542 42.1904 34.717 42.2864C34.9406 42.4063 35.0573 42.5622 35.1156 42.8739C35.2225 43.3775 35.1545 49.4327 35.0475 49.7444C34.9989 49.8524 34.8628 49.9843 34.7364 50.0202C34.192 50.1881 34.5906 50.308 35.7183 50.308C36.8947 50.308 37.2933 50.1761 36.603 50.0202C36.4183 49.9723 36.2433 49.8524 36.2044 49.7325C36.1656 49.6245 36.1169 48.9171 36.0878 48.1737L36.0294 46.8308H36.5739H37.1183L37.6724 47.754C38.5085 49.1689 39.0627 49.9363 39.3835 50.1401C39.5877 50.272 39.9474 50.32 40.6571 50.32C41.2015 50.308 42.0473 50.344 42.5431 50.3799C43.3501 50.4519 43.4764 50.4279 43.9528 50.1521C44.7014 49.7325 44.9542 49.2169 44.9542 48.0658C44.9542 47.3104 44.925 47.1545 44.6625 46.6869C44.4972 46.4111 43.982 45.7876 43.5153 45.332C42.5237 44.3487 42.3584 44.0849 42.3584 43.5214C42.3584 43.0298 42.582 42.6701 43.0195 42.4422C43.5445 42.1665 44.2736 42.5382 44.4 43.1497C44.4486 43.3535 44.5556 43.5454 44.6431 43.5694C44.7889 43.6053 44.8083 43.4974 44.8083 42.778V41.9506L44.4486 41.8667C43.9528 41.7708 42.9709 41.7948 42.6598 41.9147ZM37.41 42.718C37.7697 43.0418 38.1002 43.9051 38.1002 44.5166C38.1002 45.9075 37.2836 46.6869 36.3114 46.2312L36.0586 46.1113V44.3967C36.0586 43.1857 36.0975 42.6341 36.185 42.5262C36.3503 42.3104 37.0891 42.4303 37.41 42.718Z" fill="#292933"/>
<path d="M50.4859 41.9753C50.3498 42.5149 50.2526 43.1384 50.3012 43.2343C50.4081 43.4502 50.6123 43.3542 50.7192 43.0545C50.8748 42.6468 51.1956 42.5149 52.0608 42.5149H52.7802V45.9562C52.7802 47.8627 52.7511 49.5293 52.7219 49.6852C52.683 49.8291 52.5566 49.985 52.4302 50.0209C51.8858 50.1888 52.2844 50.3087 53.4121 50.3087C54.5885 50.3087 54.987 50.1768 54.2968 50.0209C54.1121 49.973 53.9274 49.8531 53.8885 49.7332C53.8496 49.6253 53.801 47.9466 53.7718 46.0161L53.7329 42.5149H54.4232C55.2592 42.5149 55.7648 42.7427 55.8134 43.1384C55.8328 43.2823 55.9106 43.4142 55.9884 43.4142C56.0953 43.4142 56.1439 43.2343 56.1634 42.6348L56.1925 41.8554H53.3538C51.5553 41.8554 50.5054 41.9034 50.4859 41.9753Z" fill="#292933"/>
<path d="M59.0218 42.1192C58.9732 42.2991 58.4579 44.0137 57.8843 45.9322C56.8149 49.5293 56.5816 50.0689 56.0857 50.0689C55.9788 50.0689 55.8913 50.1169 55.8913 50.1888C55.8913 50.2608 56.3288 50.3087 57.0093 50.3087C58.0593 50.3087 58.4287 50.1888 57.8843 50.0209C57.5635 49.925 57.5732 49.7691 57.9621 48.3303L58.2926 47.1312H59.1968H60.1106L60.5287 48.4502C60.7717 49.2176 60.9273 49.8771 60.8981 50.0329C60.8495 50.3087 60.8592 50.3087 61.8703 50.3087C62.8619 50.3087 63.1925 50.1648 62.5994 50.009C62.4342 49.961 62.2008 49.7691 62.0744 49.5533C61.9481 49.3375 61.4036 47.7667 60.8592 46.0521C60.3148 44.3375 59.7898 42.6948 59.6926 42.395C59.4787 41.7236 59.1773 41.6036 59.0218 42.1192ZM59.5759 45.3087C59.7412 45.8962 59.8773 46.4238 59.8773 46.4838C59.8773 46.5437 59.5759 46.5917 59.1968 46.5917C58.7301 46.5917 58.5162 46.5437 58.5162 46.4478C58.5162 46.1121 59.1482 43.9658 59.2065 44.1097C59.2454 44.1816 59.4106 44.7332 59.5759 45.3087Z" fill="#292933"/>
<path d="M64.9229 41.9156C63.9605 42.2634 63.5133 43.5583 63.9118 44.7694C64.1063 45.3209 64.291 45.5727 65.2826 46.5919C65.7395 47.0715 66.1381 47.5991 66.245 47.8629C66.6922 49.014 65.8756 50.177 64.8451 49.8293C64.3979 49.6854 64.1063 49.2897 64.0188 48.6902C63.9118 47.9828 63.6883 48.1746 63.6202 49.0499C63.5813 49.4696 63.5716 49.9013 63.6008 49.9972C63.7563 50.4888 65.477 50.5847 66.2547 50.1411C66.9644 49.7334 67.2172 49.1938 67.2172 48.0667C67.2172 47.3113 67.188 47.1554 66.9255 46.6878C66.7603 46.412 66.245 45.7885 65.7784 45.3329C64.7868 44.3497 64.6215 44.0859 64.6215 43.5224C64.6215 43.0307 64.8451 42.671 65.2826 42.4432C65.8075 42.1674 66.5367 42.5391 66.663 43.1507C66.7116 43.3545 66.8186 43.5463 66.9061 43.5703C67.0519 43.6063 67.0713 43.4984 67.0713 42.7789V41.9516L66.7116 41.8677C66.2158 41.7718 65.234 41.7957 64.9229 41.9156Z" fill="#292933"/>
<path d="M76.667 41.8794C76.6281 41.9154 76.5989 43.678 76.5989 45.7763C76.5989 49.4334 76.5892 49.6013 76.4045 49.8291C76.2976 49.961 76.142 50.0689 76.0642 50.0689C75.9865 50.0689 75.9184 50.1168 75.9184 50.1888C75.9184 50.2607 76.3753 50.3087 77.085 50.3087C78.2225 50.3087 78.6017 50.1768 77.9114 50.0209C77.6781 49.961 77.5322 49.8531 77.4836 49.6732C77.435 49.5293 77.367 48.1984 77.3378 46.7116L77.2698 44.0137L78.6989 45.8722C81.421 49.3974 82.2863 50.4286 82.5099 50.4286H82.7238V46.6636C82.7238 44.5893 82.7626 42.7547 82.8113 42.5989C82.8599 42.431 83.0154 42.2751 83.1515 42.2272C83.7251 42.0473 83.3557 41.9154 82.2863 41.9154C81.5863 41.9154 81.1682 41.9634 81.1682 42.0353C81.1682 42.1073 81.2946 42.1912 81.4599 42.2272C81.9752 42.3591 81.9946 42.443 82.0432 45.5005C82.0724 47.0593 82.0918 48.3423 82.0821 48.3543C82.0821 48.3782 81.3627 47.455 80.4877 46.3159C77.1337 41.9514 76.8614 41.6276 76.667 41.8794Z" fill="#292933"/>
<path d="M99.6107 41.9151C97.9968 42.4188 96.8982 44.3733 97.044 46.4597C97.1704 48.1504 97.7343 49.2775 98.8037 49.949C99.4551 50.3567 99.5038 50.3687 100.602 50.3687C101.613 50.3687 101.788 50.3327 102.275 50.0569C103.043 49.6132 103.568 48.9777 103.937 48.0544C104.239 47.299 104.258 47.1911 104.258 45.9321C104.258 44.745 104.229 44.5531 103.995 44.0135C103.655 43.2101 103.12 42.5986 102.43 42.2149C101.973 41.9511 101.682 41.8792 100.923 41.8432C100.408 41.8192 99.8149 41.8552 99.6107 41.9151ZM101.584 42.6466C102.187 42.9823 102.586 43.4859 102.916 44.3613C103.159 45.0088 103.189 45.2246 103.189 46.2918C103.179 47.5988 103.033 48.2103 102.527 48.9417C101.643 50.2368 99.844 50.1049 98.901 48.6899C97.7343 46.9273 97.9093 43.8577 99.2315 42.8504C100.019 42.2509 100.738 42.1909 101.584 42.6466Z" fill="#292933"/>
<path d="M105.93 41.8794C105.891 41.9154 105.862 43.678 105.862 45.7763C105.862 49.4334 105.852 49.6013 105.668 49.8291C105.561 49.961 105.405 50.0689 105.327 50.0689C105.25 50.0689 105.181 50.1168 105.181 50.1888C105.181 50.2607 105.638 50.3087 106.348 50.3087C107.486 50.3087 107.865 50.1768 107.174 50.0209C106.941 49.961 106.795 49.8531 106.747 49.6732C106.698 49.5293 106.63 48.1984 106.601 46.7116L106.533 44.0137L107.962 45.8722C110.684 49.3974 111.549 50.4286 111.773 50.4286H111.987V46.6636C111.987 44.5893 112.026 42.7547 112.074 42.5989C112.123 42.431 112.279 42.2751 112.415 42.2272C112.988 42.0473 112.619 41.9154 111.549 41.9154C110.849 41.9154 110.431 41.9634 110.431 42.0353C110.431 42.1073 110.558 42.1912 110.723 42.2272C111.238 42.3591 111.258 42.443 111.306 45.5005C111.335 47.0593 111.355 48.3423 111.345 48.3543C111.345 48.3782 110.626 47.455 109.751 46.3159C106.397 41.9514 106.125 41.6276 105.93 41.8794Z" fill="#292933"/>
<path d="M115.953 41.8794C114.242 41.9154 113.766 42.0233 114.388 42.2152C114.913 42.3711 114.903 42.2871 114.903 46.0761C114.903 48.2823 114.864 49.6972 114.806 49.8411C114.748 49.961 114.611 50.0689 114.514 50.0689C114.407 50.0689 114.32 50.1168 114.32 50.1648C114.32 50.2607 116.342 50.4286 117.538 50.4286C118.209 50.4286 118.306 50.2967 118.306 49.3614C118.306 48.8938 118.267 48.7499 118.16 48.7499C118.072 48.7499 117.985 48.8938 117.946 49.1096C117.868 49.6372 117.586 49.8291 116.896 49.8291C115.943 49.8291 115.924 49.7931 115.924 47.8267V46.172L116.575 46.184C117.266 46.196 117.528 46.3399 117.528 46.7236C117.528 46.8674 117.596 46.9514 117.722 46.9514C117.888 46.9514 117.917 46.8674 117.917 46.4838C117.917 46.232 117.946 45.8483 117.975 45.6444C118.053 45.2128 117.878 45.1408 117.489 45.4526C117.324 45.5965 117.071 45.6324 116.595 45.6085L115.924 45.5725V44.0137V42.455L116.604 42.5029C117.411 42.5509 117.625 42.6588 117.625 43.0545C117.625 43.2703 117.674 43.3543 117.82 43.3543C117.946 43.3543 118.014 43.2703 118.014 43.1264C118.014 43.0065 118.043 42.6588 118.072 42.3471C118.131 41.8555 118.121 41.7955 117.956 41.8195C117.849 41.8435 116.954 41.8675 115.953 41.8794Z" fill="#292933"/>
<path d="M121.31 41.9156C120.347 42.2634 119.9 43.5583 120.299 44.7694C120.493 45.3209 120.678 45.5727 121.67 46.5919C122.127 47.0715 122.525 47.5991 122.632 47.8629C123.079 49.014 122.263 50.177 121.232 49.8293C120.785 49.6854 120.493 49.2897 120.406 48.6902C120.299 47.9828 120.075 48.1746 120.007 49.0499C119.968 49.4696 119.959 49.9013 119.988 49.9972C120.143 50.4888 121.864 50.5847 122.642 50.1411C123.352 49.7334 123.604 49.1938 123.604 48.0667C123.604 47.3113 123.575 47.1554 123.313 46.6878C123.147 46.412 122.632 45.7885 122.165 45.3329C121.174 44.3497 121.009 44.0859 121.009 43.5224C121.009 43.0307 121.232 42.671 121.67 42.4432C122.195 42.1674 122.924 42.5391 123.05 43.1507C123.099 43.3545 123.206 43.5463 123.293 43.5703C123.439 43.6063 123.458 43.4984 123.458 42.7789V41.9516L123.099 41.8677C122.603 41.7718 121.621 41.7957 121.31 41.9156Z" fill="#292933"/>
<path d="M131.547 42.1192C131.499 42.2991 130.983 44.0137 130.41 45.9322C129.34 49.5293 129.107 50.0689 128.611 50.0689C128.504 50.0689 128.417 50.1169 128.417 50.1888C128.417 50.2608 128.854 50.3087 129.535 50.3087C130.585 50.3087 130.954 50.1888 130.41 50.0209C130.089 49.925 130.099 49.7691 130.487 48.3303L130.818 47.1312H131.722H132.636L133.054 48.4502C133.297 49.2176 133.453 49.8771 133.424 50.0329C133.375 50.3087 133.385 50.3087 134.396 50.3087C135.387 50.3087 135.718 50.1648 135.125 50.009C134.96 49.961 134.726 49.7691 134.6 49.5533C134.474 49.3375 133.929 47.7667 133.385 46.0521C132.84 44.3375 132.315 42.6948 132.218 42.395C132.004 41.7236 131.703 41.6036 131.547 42.1192ZM132.101 45.3087C132.267 45.8962 132.403 46.4238 132.403 46.4838C132.403 46.5437 132.101 46.5917 131.722 46.5917C131.256 46.5917 131.042 46.5437 131.042 46.4478C131.042 46.1121 131.674 43.9658 131.732 44.1097C131.771 44.1816 131.936 44.7332 132.101 45.3087Z" fill="#292933"/>
<path d="M0.670853 42.0346C0.670853 42.1066 0.806961 42.1905 0.962513 42.2385C1.12779 42.2745 1.30278 42.3944 1.34167 42.5023C1.39028 42.6102 1.44861 43.9411 1.46806 45.4519C1.50694 48.4256 1.54583 48.6654 2.08054 49.4447C2.50831 50.0683 3.0333 50.344 3.95689 50.404C5.36658 50.4999 6.22212 49.9963 6.67905 48.7733C6.93182 48.1138 6.94155 47.9939 6.99988 45.2721C7.02904 43.7253 7.06793 42.4423 7.06793 42.4183C7.07765 42.3944 7.22348 42.3224 7.37903 42.2625C7.92347 42.0227 7.6707 41.9147 6.55266 41.9147C5.85268 41.9147 5.43463 41.9627 5.43463 42.0346C5.43463 42.1066 5.57074 42.1905 5.72629 42.2385C5.89157 42.2745 6.06656 42.4064 6.1249 42.5382C6.19295 42.6941 6.21239 43.7133 6.19295 45.368C6.16378 47.7181 6.14434 48.0299 5.95962 48.5215C5.29853 50.2961 3.45135 50.3081 2.75136 48.5575C2.49859 47.934 2.48887 47.7661 2.44026 45.8236C2.41109 44.6845 2.43054 43.4375 2.4597 43.0658C2.52776 42.4423 2.56664 42.3584 2.81942 42.2505C3.36385 42.0107 3.09163 41.9147 1.8861 41.9147C1.11806 41.9147 0.670853 41.9627 0.670853 42.0346Z" fill="#292933"/>
<path d="M17.6453 41.9993C17.6064 42.0473 17.7231 42.1672 17.898 42.2751L18.2189 42.455L18.248 45.8123C18.2772 49.6732 18.2578 49.913 17.9272 50.0209C17.3731 50.1888 17.7619 50.3087 18.8994 50.3087C20.0757 50.3087 20.4743 50.1768 19.7841 50.0209C19.5994 49.973 19.4244 49.8531 19.3758 49.7332C19.2786 49.4574 19.2008 43.8699 19.2883 43.0425C19.3466 42.443 19.3855 42.3591 19.6383 42.2511C19.7938 42.1912 19.9202 42.0833 19.9202 42.0233C19.9202 41.8914 17.7522 41.8794 17.6453 41.9993Z" fill="#292933"/>
<path d="M20.7952 42.0353C20.7952 42.1072 20.9216 42.1912 21.0771 42.2271C21.2424 42.2751 21.4368 42.395 21.5243 42.5149C21.641 42.6828 24.1979 50.2008 24.1979 50.3926C24.1979 50.4166 24.3048 50.4286 24.4312 50.4286C24.6742 50.4286 24.9464 49.7451 26.6769 44.6132C27.3769 42.5629 27.4839 42.3351 27.8533 42.2271C27.9797 42.1792 28.0866 42.0952 28.0866 42.0353C28.0866 41.9634 27.6491 41.9154 27.0172 41.9154C26.3658 41.9154 25.9478 41.9634 25.9478 42.0353C25.9478 42.0952 26.0061 42.1552 26.0742 42.1552C26.1422 42.1552 26.2783 42.2271 26.3756 42.3111C26.5311 42.455 26.5214 42.5269 26.2395 43.4741C25.7339 45.1528 24.7617 48.1984 24.6937 48.3063C24.6256 48.3902 22.8368 42.7187 22.8368 42.443C22.8368 42.359 22.9437 42.2631 23.0798 42.2271C23.2159 42.1792 23.3229 42.0952 23.3229 42.0353C23.3229 41.9634 22.8173 41.9154 22.059 41.9154C21.2618 41.9154 20.7952 41.9634 20.7952 42.0353Z" fill="#292933"/>
<path d="M46.811 41.9993C46.7721 42.0473 46.8888 42.1672 47.0638 42.2751L47.3846 42.455L47.4138 45.8123C47.443 49.6732 47.4235 49.913 47.093 50.0209C46.5388 50.1888 46.9277 50.3087 48.0652 50.3087C49.2415 50.3087 49.6401 50.1768 48.9499 50.0209C48.7651 49.973 48.5901 49.8531 48.5415 49.7332C48.4443 49.4574 48.3665 43.8699 48.454 43.0425C48.5124 42.443 48.5513 42.3591 48.804 42.2511C48.9596 42.1912 49.086 42.0833 49.086 42.0233C49.086 41.8914 46.918 41.8794 46.811 41.9993Z" fill="#292933"/>
<path d="M72.088 41.9993C72.0491 42.0473 72.1658 42.1672 72.3408 42.2751L72.6616 42.455L72.6908 45.8123C72.72 49.6732 72.7005 49.913 72.37 50.0209C71.8158 50.1888 72.2047 50.3087 73.3422 50.3087C74.5185 50.3087 74.9171 50.1768 74.2269 50.0209C74.0421 49.973 73.8671 49.8531 73.8185 49.7332C73.7213 49.4574 73.6435 43.8699 73.731 43.0425C73.7894 42.443 73.8283 42.3591 74.081 42.2511C74.2366 42.1912 74.363 42.0833 74.363 42.0233C74.363 41.8914 72.195 41.8794 72.088 41.9993Z" fill="#292933"/>
<path d="M84.8626 42.0227C84.8626 42.0826 84.9793 42.1666 85.1251 42.2145C85.6501 42.3704 85.6404 42.2985 85.6404 45.9795C85.6404 47.862 85.6112 49.5287 85.582 49.6846C85.5431 49.8285 85.4167 49.9843 85.2904 50.0203C85.164 50.0563 85.057 50.1402 85.057 50.1882C85.057 50.3201 87.9445 50.4759 88.8194 50.392C90.1124 50.2721 91.1235 49.4328 91.6582 48.0419C91.8818 47.4424 91.911 47.2265 91.911 46.0515C91.911 44.9004 91.8818 44.6606 91.6777 44.145C91.2305 43.0299 90.511 42.3944 89.3444 42.0826C88.6153 41.9028 84.8626 41.8428 84.8626 42.0227ZM88.0417 42.5023C89.2861 42.7301 90.2097 43.5215 90.686 44.7805C91.2013 46.1594 90.9388 48.1258 90.1319 49.0131C89.5291 49.6486 89.0041 49.8764 88.0708 49.8884C86.9139 49.8884 86.7584 49.7565 86.6806 48.6654C86.5931 47.5503 86.6028 42.85 86.6903 42.6822C86.8459 42.3944 87.157 42.3464 88.0417 42.5023Z" fill="#292933"/>
<path d="M93.3791 41.9993C93.3402 42.0473 93.4569 42.1672 93.6319 42.2751L93.9527 42.455L93.9819 45.8123C94.011 49.6732 93.9916 49.913 93.6611 50.0209C93.1069 50.1888 93.4958 50.3087 94.6332 50.3087C95.8096 50.3087 96.2082 50.1768 95.5179 50.0209C95.3332 49.973 95.1582 49.8531 95.1096 49.7332C95.0124 49.4574 94.9346 43.8699 95.0221 43.0425C95.0805 42.443 95.1193 42.3591 95.3721 42.2511C95.5277 42.1912 95.654 42.0833 95.654 42.0233C95.654 41.8914 93.4861 41.8794 93.3791 41.9993Z" fill="#292933"/>
<path d="M125.364 41.9993C125.325 42.0473 125.442 42.1672 125.617 42.2751L125.937 42.455L125.967 45.8123C125.996 49.6732 125.976 49.913 125.646 50.0209C125.092 50.1888 125.481 50.3087 126.618 50.3087C127.794 50.3087 128.193 50.1768 127.503 50.0209C127.318 49.973 127.143 49.8531 127.094 49.7332C126.997 49.4574 126.919 43.8699 127.007 43.0425C127.065 42.443 127.104 42.3591 127.357 42.2511C127.512 42.1912 127.639 42.0833 127.639 42.0233C127.639 41.8914 125.471 41.8794 125.364 41.9993Z" fill="#292933"/>
</svg>
